<?xml version="1.0" standalone="no"?>
<!DOCTYPE svg PUBLIC "-//W3C//DTD SVG 20010904//EN"
 "http://www.w3.org/TR/2001/REC-SVG-20010904/DTD/svg10.dtd">
<svg version="1.0" xmlns="http://www.w3.org/2000/svg"
 width="639.000000pt" height="639.000000pt" viewBox="0 0 639.000000 639.000000"
 preserveAspectRatio="xMidYMid meet">
<metadata>
Created by potrace 1.11, written by Peter Selinger 2001-2013
</metadata>
<g transform="translate(0.000000,639.000000) scale(0.100000,-0.100000)"
fill="#000000" stroke="none">
<path d="M1127 6134 c-1 -1 -27 -5 -59 -8 -122 -14 -269 -68 -380 -139 -143
-91 -280 -241 -353 -387 -29 -58 -63 -148 -66 -175 -1 -5 -5 -19 -9 -30 -21
-56 -25 -179 -25 -895 0 -817 0 -825 47 -970 95 -296 356 -546 659 -630 104
-29 171 -34 440 -34 l236 -1 -1 -656 -1 -656 207 0 208 0 2 1179 3 1179 55
-77 c30 -42 60 -82 65 -88 6 -6 35 -45 65 -86 30 -41 59 -79 63 -85 5 -5 107
-143 228 -305 492 -662 603 -810 611 -810 4 0 20 17 35 37 15 21 31 42 36 48
11 14 45 60 342 460 147 198 308 414 357 480 49 66 141 189 204 274 l114 154
0 -59 c1 -32 1 -564 1 -1180 l1 -1121 206 1 207 1 0 650 c-1 358 3 652 7 655
11 9 529 4 568 -5 82 -18 169 -87 212 -167 l23 -43 0 -745 0 -745 -30 -53
c-40 -74 -110 -135 -180 -157 -54 -17 -164 -18 -2059 -17 -1100 0 -2012 3
-2025 6 -69 16 -139 66 -190 136 -44 61 -54 107 -55 257 -1 72 -5 135 -9 139
-5 5 -546 10 -640 5 -17 -1 -18 -13 -13 -188 6 -238 27 -336 102 -486 92 -182
281 -362 469 -448 77 -35 186 -65 275 -76 74 -10 4121 -9 4190 0 108 15 187
40 293 92 271 136 469 395 524 687 21 113 26 1499 6 1648 -44 323 -253 605
-554 747 -54 26 -154 60 -154 53 0 -1 -11 3 -25 8 -49 19 -157 25 -440 28
-157 1 -287 2 -290 3 -3 0 -5 225 -5 499 l0 497 -244 0 -245 0 -345 -465
c-190 -256 -418 -563 -507 -682 -145 -196 -162 -215 -175 -200 -8 9 -93 123
-189 252 -96 129 -278 375 -405 545 -127 171 -271 365 -320 432 l-90 121 -242
1 -243 0 -1 -42 c0 -23 -1 -249 -1 -502 l0 -461 -232 1 c-250 2 -280 6 -353
56 -57 40 -100 94 -120 154 -15 45 -17 118 -18 730 -1 375 2 704 7 734 14 83
50 140 123 198 88 70 -88 65 2135 65 1395 1 2017 -3 2043 -10 87 -25 164 -89
209 -175 20 -37 23 -61 26 -199 3 -109 8 -158 16 -159 51 -4 636 0 643 4 13 8
8 295 -7 391 -30 198 -122 375 -273 527 -152 152 -336 244 -547 275 -43 6
-4136 14 -4143 8z"/>
</g>
</svg>
