<?xml version="1.0" encoding="UTF-8"?>
<svg width="90px" height="90px" viewBox="0 0 90 90" version="1.1" xmlns="http://www.w3.org/2000/svg" xmlns:xlink="http://www.w3.org/1999/xlink">
    <!-- Generator: Sketch 56 (81588) - https://sketch.com -->
    <title>target-audience</title>
    <desc>Created with Sketch.</desc>
    <g id="Page-1" stroke="none" stroke-width="1" fill="none" fill-rule="evenodd">
        <g id="Homepage-04" transform="translate(-239.000000, -2572.000000)" fill-rule="nonzero">
            <g id="S-AUTOMOTIVE" transform="translate(0.000000, 2157.000000)">
                <g id="Automotive" transform="translate(98.000000, 86.000000)">
                    <g id="row" transform="translate(0.000000, 280.000000)">
                        <g id="s---1">
                            <g id="ovalicon" transform="translate(92.000000, 0.000000)">
                                <g id="target-audience" transform="translate(49.000000, 49.000000)">
                                    <polygon id="Path" fill="#1E88E5" points="22.5 78.75 25.3125 78.75 25.3125 87.1875 22.5 87.1875"></polygon>
                                    <polygon id="Path" fill="#1E88E5" points="64.6875 78.75 67.5 78.75 67.5 87.1875 64.6875 87.1875"></polygon>
                                    <path d="M86.9876861,7.03125 C86.4733887,5.06332406 84.9366759,3.52661133 82.96875,3.01231389 L82.96875,0 L80.15625,0 L80.15625,3.01231389 C78.1883241,3.52661133 76.6516113,5.06332406 76.1373139,7.03125 L73.125,7.03125 L73.125,9.84375 L76.1373139,9.84375 C76.6516113,11.8116759 78.1883241,13.3483887 80.15625,13.8626861 L80.15625,16.875 L82.96875,16.875 L82.96875,13.8626861 C84.9366759,13.3483887 86.4733887,11.8116759 86.9876861,9.84375 L90,9.84375 L90,7.03125 L86.9876861,7.03125 Z M81.5625,11.25 C80.0093078,11.25 78.75,9.99069223 78.75,8.4375 C78.75,6.88430777 80.0093078,5.625 81.5625,5.625 C83.1156922,5.625 84.375,6.88430777 84.375,8.4375 C84.375,9.99069223 83.1156922,11.25 81.5625,11.25 Z" id="Shape" fill="#00D1A2"></path>
                                    <path d="M73.7031554,64.9690246 L54.84375,59.4168091 L54.84375,54.1900635 L59.0625,51.3775635 L59.0625,47.5309754 L59.7766113,46.6582489 C61.1313629,44.9986268 61.8722534,42.9228974 61.875,40.78125 C61.87294,38.9939117 60.7468414,37.4008941 59.0625,36.802826 L59.0625,28.125 C59.05838,25.345459 57.0286561,22.984085 54.2813873,22.5631714 C52.0394897,19.621582 44.0716553,17.6412964 37.7201844,18.6692047 C33.0860138,19.4217681 25.3125,22.3805236 25.3125,33.75 L25.3125,36.0255431 L27.3470307,35.0086212 C28.4923554,34.5636749 29.7090912,34.335022 30.9375,34.335022 L30.9375,36.802826 C29.2531586,37.4008941 28.12706,38.9939117 28.125,40.78125 C28.12706,42.9242706 28.8679504,45.0013732 30.2233887,46.6623687 L30.9375,47.5309754 L30.9375,51.3748169 L35.15625,54.1873169 L35.15625,59.4140625 L16.2968446,64.9690246 C13.3147431,65.8602905 11.2657929,68.5965728 11.25,71.7091369 L11.25,90 L14.0625,90 L14.0625,71.7091369 C14.0700531,69.8400879 15.2998351,68.1969452 17.08992,67.6620483 L30.9375,63.5895538 L30.9375,90 L33.75,90 L33.75,62.7607726 L35.4824067,62.2519683 C36.4670562,66.0889434 39.6709443,68.9515685 43.59375,69.4995117 L43.59375,78.75 L46.40625,78.75 L46.40625,69.4995117 C50.3290557,68.9515685 53.5329438,66.0889434 54.5175933,62.2519683 L56.25,62.7607726 L56.25,90 L59.0625,90 L59.0625,63.5895538 L72.91008,67.6675415 C74.6981049,68.2017518 75.9272003,69.8421479 75.9375,71.7091369 L75.9375,90 L78.75,90 L78.75,71.7091369 C78.7342071,68.5965728 76.6852569,65.8602905 73.7031554,64.9690246 Z M28.2190704,31.815033 C28.9503478,24.6574403 33.7637329,22.2397613 37.8533936,21.5002441 C44.6470643,20.2684022 51.634369,23.106308 52.1026611,24.3505097 L52.4233246,25.3125 L53.4375,25.3125 C54.9906922,25.3125 56.25,26.5718078 56.25,28.125 L56.25,32.103424 C54.5656586,31.5053559 53.43956,29.9123383 53.4375,28.125 L50.625,28.125 C50.6655121,28.8102723 50.4093934,29.4797515 49.921875,29.96315 C47.940216,31.8823242 42.2211456,31.7051698 37.1770478,31.5520478 C34.1901397,31.3398742 31.1888123,31.4284516 28.2190704,31.815033 Z M52.03125,60.3012085 L51.9976044,60.4419708 C51.6432953,64.0413666 48.6165619,66.7852021 45,66.7852021 C41.3834381,66.7852021 38.3567047,64.0413666 38.0023956,60.4419708 L37.96875,60.3101348 L37.96875,56.0646056 L40.3596496,57.65625 L49.6403504,57.65625 L52.03125,56.0646056 L52.03125,60.3012085 Z M48.7971496,54.84375 L41.2028504,54.84375 L33.75,49.8724365 L33.75,46.5298462 L32.4000548,44.881897 C31.4559174,43.723526 30.93956,42.2753906 30.9375,40.78125 C30.9375,40.0046539 31.5671539,39.375 32.34375,39.375 L33.75,39.375 L33.75,34.2842101 C34.8369599,34.2958832 35.9651183,34.3281554 37.0870972,34.3631744 C42.9242706,34.5417022 48.9571381,34.7270966 51.8177032,32.0388794 C52.8497314,33.5694122 54.4413758,34.6330262 56.25,35.0017548 L56.25,39.375 L57.65625,39.375 C58.4328461,39.375 59.0625,40.0046539 59.0625,40.78125 C59.0611268,42.2753906 58.5440826,43.7228394 57.5999452,44.8805236 L56.25,46.5298462 L56.25,49.8724365 L48.7971496,54.84375 Z" id="Shape" fill="#1E88E5"></path>
                                    <path d="M46.40625,4.25376896 L46.40625,0 L43.59375,0 L43.59375,4.25376896 C22.1910096,5.01731877 5.01731877,22.1910096 4.25376896,43.59375 L0,43.59375 L0,46.40625 L4.26200871,46.40625 C4.47692871,52.7021026 6.14685059,58.8633729 9.140625,64.4059754 L11.6125488,63.06633 C8.84193416,57.9343414 7.28942871,52.2344971 7.07450871,46.40625 L11.25,46.40625 L11.25,43.59375 L7.06626896,43.59375 C7.82569881,23.7435151 23.7435151,7.82569881 43.59375,7.06626896 L43.59375,11.25 L46.40625,11.25 L46.40625,7.06626896 C66.2564849,7.82569881 82.1743012,23.7435151 82.933731,43.59375 L78.75,43.59375 L78.75,46.40625 L82.9254913,46.40625 C82.7119445,52.2351837 81.1601258,57.937088 78.3901978,63.0704498 L80.859375,64.4059754 C83.8524628,58.8626861 85.5216981,52.7021026 85.7379913,46.40625 L90,46.40625 L90,43.59375 L85.746231,43.59375 C84.9826812,22.1910096 67.8089904,5.01731877 46.40625,4.25376896 Z" id="Path" fill="#1E88E5"></path>
                                    <path d="M70.9737397,59.0467071 C75.3057861,51.0555268 75.7026671,41.5097808 72.0476532,33.1862641 L69.4713593,34.3109893 C72.7782441,41.8400575 72.419815,50.4746246 68.5011291,57.7043153 L70.9737397,59.0467071 Z" id="Path" fill="#00D1A2"></path>
                                    <path d="M17.9523468,33.1876373 C14.2973329,41.5104676 14.6942139,51.0555268 19.0262603,59.0467071 L21.4988709,57.7056885 C17.580185,50.475998 17.2231293,41.8407441 20.5313873,34.3123627 L17.9523468,33.1876373 Z" id="Path" fill="#00D1A2"></path>
                                    <polygon id="Path" fill="#1E88E5" points="43.59375 39.375 40.78125 39.375 40.78125 47.8125 46.40625 47.8125 46.40625 45 43.59375 45"></polygon>
                                </g>
                            </g>
                        </g>
                    </g>
                </g>
            </g>
        </g>
    </g>
</svg>