<?xml version="1.0" encoding="UTF-8"?>
<svg width="91px" height="90px" viewBox="0 0 91 90" version="1.1" xmlns="http://www.w3.org/2000/svg" xmlns:xlink="http://www.w3.org/1999/xlink">
    <!-- Generator: Sketch 56 (81588) - https://sketch.com -->
    <title>content</title>
    <desc>Created with Sketch.</desc>
    <g id="Page-1" stroke="none" stroke-width="1" fill="none" fill-rule="evenodd">
        <g id="Homepage-04" transform="translate(-675.000000, -2573.000000)" fill-rule="nonzero">
            <g id="S-AUTOMOTIVE" transform="translate(0.000000, 2157.000000)">
                <g id="Automotive" transform="translate(98.000000, 86.000000)">
                    <g id="row" transform="translate(0.000000, 280.000000)">
                        <g id="s---2" transform="translate(436.500000, 0.000000)">
                            <g id="ovalicon" transform="translate(92.000000, 0.000000)">
                                <g id="content" transform="translate(49.000000, 50.000000)">
                                    <polygon id="Path" fill="#00D1A2" points="14.0625 33.75 25.3125 33.75 25.3125 36.5625 14.0625 36.5625"></polygon>
                                    <polygon id="Path" fill="#1E88E5" points="36.5625 19.6875 50.625 19.6875 50.625 22.5 36.5625 22.5"></polygon>
                                    <polygon id="Path" fill="#1E88E5" points="36.5625 33.75 50.625 33.75 50.625 36.5625 36.5625 36.5625"></polygon>
                                    <polygon id="Path" fill="#00D1A2" points="36.5625 26.71875 45 26.71875 45 29.53125 36.5625 29.53125"></polygon>
                                    <path d="M30.9375,73.5678863 L30.9375,40.3596496 L53.4375,52.8593446 L53.4375,56.25 L64.6875,56.25 L64.6875,-5.68434189e-14 L53.4375,-5.68434189e-14 L53.4375,3.39202881 L30.9375,15.8903504 L30.9375,14.0625 L8.4375,14.0625 L8.4375,17.2265625 L0,17.2265625 L0,36.5625 L8.4375,36.5625 L8.4375,73.5678863 L19.6875,89.6401978 L19.6875,90 L90,90 L90,87.1875 L21.4048004,87.1875 L30.9375,73.5678863 Z M56.25,2.8125 L61.875,2.8125 L61.875,53.4375 L56.25,53.4375 L56.25,2.8125 Z M30.9375,19.1079712 L53.4375,6.60964957 L53.4375,49.6403504 L30.9375,37.1420288 L30.9375,19.1079712 Z M8.4375,33.75 L2.8125,33.75 L2.8125,20.0390625 L8.4375,20.0390625 L8.4375,33.75 Z M28.125,70.8494569 L25.3125,69.4432069 L25.3125,42.1875 L28.125,42.1875 L28.125,70.8494569 Z M11.25,16.875 L14.0625,16.875 L14.0625,30.9375 L16.875,30.9375 L16.875,16.875 L22.5,16.875 L22.5,30.9375 L25.3125,30.9375 L25.3125,16.875 L28.125,16.875 L28.125,39.375 L11.25,39.375 L11.25,16.875 Z M22.5,42.1875 L22.5,69.2983246 L19.6875,70.2362823 L16.875,69.2983246 L16.875,42.1875 L22.5,42.1875 Z M11.25,42.1875 L14.0625,42.1875 L14.0625,69.4432069 L11.25,70.8494569 L11.25,42.1875 Z M11.9304657,73.653717 L15.5772401,71.8258667 L19.6875,73.2012177 L23.7977599,71.8313599 L27.4445343,73.6592101 L24.8613739,77.34375 L14.5136261,77.34375 L11.9304657,73.653717 Z M16.4829254,80.15625 L22.8920746,80.15625 L19.6875,84.7348022 L16.4829254,80.15625 Z" id="Shape" fill="#1E88E5"></path>
                                    <path d="M87.1875,28.125 C87.1531678,36.262436 82.1447754,43.5504913 74.5607758,46.4989472 L75.5701446,49.1260528 C84.2610168,45.7841493 89.9951934,37.4352265 89.9951934,28.125 C89.9951934,18.8147735 84.2610168,10.4658507 75.5701446,7.12394719 L74.5607758,9.75105281 C82.1447754,12.6995087 87.1531678,19.987564 87.1875,28.125 Z" id="Path" fill="#00D1A2"></path>
                                    <path d="M81.5625,28.125 C81.5714263,33.8323975 78.1251525,38.9774322 72.8434754,41.1410522 L73.9167022,43.7400054 C80.2462006,41.1362457 84.3777466,34.9687958 84.3777466,28.125 C84.3777466,21.2812042 80.2462006,15.1137543 73.9167022,12.5099946 L72.8434754,15.1089478 C78.1251525,17.2725678 81.5714263,22.4176025 81.5625,28.125 L81.5625,28.125 Z" id="Path" fill="#00D1A2"></path>
                                    <path d="M71.0904693,35.7550049 L72.2914123,38.2976532 C76.2334443,36.4450836 78.7506866,32.4810791 78.7506866,28.125 C78.7506866,23.7689209 76.2334443,19.8049164 72.2914123,17.9523468 L71.0904693,20.4949951 C74.0485382,21.8833924 75.9375,24.8565674 75.9375,28.125 C75.9375,31.3934326 74.0485382,34.3666076 71.0904693,35.7550049 L71.0904693,35.7550049 Z" id="Path" fill="#00D1A2"></path>
                                    <polygon id="Path" fill="#1E88E5" points="36.5625 81.5625 90 81.5625 90 84.375 36.5625 84.375"></polygon>
                                    <polygon id="Path" fill="#00D1A2" points="47.8125 75.9375 90 75.9375 90 78.75 47.8125 78.75"></polygon>
                                    <polygon id="Path" fill="#1E88E5" points="59.0625 70.3125 90 70.3125 90 73.125 59.0625 73.125"></polygon>
                                </g>
                            </g>
                        </g>
                    </g>
                </g>
            </g>
        </g>
    </g>
</svg>