<?xml version="1.0" encoding="UTF-8"?>
<svg width="90px" height="90px" viewBox="0 0 90 90" version="1.1" xmlns="http://www.w3.org/2000/svg" xmlns:xlink="http://www.w3.org/1999/xlink">
    <!-- Generator: Sketch 56 (81588) - https://sketch.com -->
    <title>affiliate</title>
    <desc>Created with Sketch.</desc>
    <g id="Page-1" stroke="none" stroke-width="1" fill="none" fill-rule="evenodd">
        <g id="Homepage-04" transform="translate(-457.000000, -3384.000000)">
            <g id="S-ECOMMERCE" transform="translate(0.000000, 3003.000000)">
                <g id="Ecommerce" transform="translate(254.000000, 90.000000)">
                    <g id="row" transform="translate(62.000000, 242.000000)">
                        <g id="s---1">
                            <g id="ovalicon" transform="translate(92.000000, 0.000000)">
                                <g id="affiliate" transform="translate(49.000000, 49.000000)">
                                    <path d="M42.2189629,43.4569553 L39.4174065,43.4569553 C38.6438321,43.4569553 38.0166282,42.8297514 38.0166282,42.056177 C38.0166282,41.2826027 38.6438321,40.6553988 39.4174065,40.6553988 L45.0205193,40.6553988 L45.0205193,37.8538424 L42.2189629,37.8538424 L42.2189629,35.052286 L39.4174065,35.052286 L39.4174065,37.8538424 C37.0959995,37.8538424 35.2150718,39.7354542 35.2150718,42.056177 C35.2150718,44.3768999 37.0959995,46.2585117 39.4174065,46.2585117 L42.2189629,46.2585117 C42.992537,46.2585117 43.6197411,46.8857155 43.6197411,47.6592899 C43.6197411,48.4328642 42.992537,49.0600681 42.2189629,49.0600681 L36.61585,49.0600681 L36.61585,51.8616245 L39.4174065,51.8616245 L39.4174065,54.6631809 L42.2189629,54.6631809 L42.2189629,51.8616245 C44.5396857,51.8616245 46.4212975,49.9800127 46.4212975,47.6592899 C46.4212975,45.338567 44.5396857,43.4569553 42.2189629,43.4569553 Z" id="Path" fill="#00D1A2" fill-rule="nonzero"></path>
                                    <path d="M54.0051983,60.2662938 L56.226745,58.0447471 L58.4482917,60.2662938 L61.8298578,60.2662938 L61.8298578,29.4491732 L57.6275232,29.4491732 L57.6275232,26.6476167 C57.632995,23.6429202 56.0311284,20.8646188 53.4279243,19.3639805 C50.8247203,17.863342 47.6175675,17.8694979 45.0205193,19.3803958 C42.422787,17.8694979 39.2163181,17.863342 36.613114,19.3639805 C34.00991,20.8646188 32.4080436,23.6429202 32.4135154,26.6476167 L32.4135154,29.4491732 L28.2111808,29.4491732 L28.2111808,60.2662938 L54.0051983,60.2662938 Z M57.6275232,32.2507296 L59.0283014,32.2507296 L59.0283014,56.8847276 L56.226745,54.0831712 L53.4251886,56.8847276 L53.4251886,32.2507296 L57.6275232,32.2507296 Z M43.6197411,26.6476167 C43.6245288,25.2954007 44.1224617,23.9917467 45.0205193,22.9801496 C45.9178928,23.9917467 46.4158257,25.2954007 46.4212975,26.6476167 L46.4212975,29.4491732 L43.6197411,29.4491732 L43.6197411,26.6476167 Z M35.2150718,26.6476167 C35.2150718,23.5526356 37.7232034,21.0445039 40.8181847,21.0445039 C41.4529123,21.0506596 42.0821681,21.1662511 42.6779091,21.3864908 C41.4741154,22.8748176 40.8175006,24.7324903 40.8181847,26.6476167 L40.8181847,29.4491732 L35.2150718,29.4491732 L35.2150718,26.6476167 Z M50.6236321,57.4647374 L31.0127372,57.4647374 L31.0127372,32.2507296 L50.6236321,32.2507296 L50.6236321,57.4647374 Z M49.2228539,29.4491732 L49.2228539,26.6476167 C49.2235379,24.7324903 48.5669231,22.8748176 47.3624454,21.3864908 C47.9581864,21.1662511 48.5874422,21.0506596 49.2228539,21.0445039 C52.3171509,21.0445039 54.8259668,23.5526356 54.8259668,26.6476167 L54.8259668,29.4491732 L49.2228539,29.4491732 Z" id="Shape" fill="#1E88E5" fill-rule="nonzero"></path>
                                    <path d="M87.0438656,44.8577335 C87.0534411,50.6961333 85.8325481,56.4716075 83.461895,61.8072866 C82.6958444,61.2525838 81.8812317,60.7690145 81.0276325,60.362734 C85.3140959,50.467686 85.3140959,39.2395731 81.0276325,29.3438413 C86.5302013,26.7522647 89.9911084,21.1635154 89.8577335,15.0823049 C89.7250426,9.00109436 86.0226927,3.56897486 80.4120563,1.22020914 C74.8007356,-1.12787265 68.3330799,0.048562179 63.9084539,4.22216982 C57.9975529,1.45276021 51.5476805,0.0225710895 45.0205193,0.0328307393 L45.0205193,2.83438716 C50.8589191,2.82481144 56.6343932,4.04502058 61.9700724,6.41635757 C61.4160536,7.18377619 60.9338521,8.00112467 60.5296236,8.85745996 C50.6345757,4.57099652 39.4064629,4.57099652 29.5107307,8.85745996 C26.9212062,3.35352327 21.3331409,-0.109435798 15.2512463,0.0218871595 C9.17003591,0.153210117 3.73586463,3.85350794 1.38641481,9.46482864 C-0.963035019,15.0754651 0.212031946,21.5438046 4.38495566,25.9697987 C1.61554588,31.8806998 0.185356891,38.3298881 0.195616576,44.8577335 L2.997173,44.8577335 C2.98759728,39.0186497 4.20780642,33.2438594 6.5784593,27.9081804 C7.34656185,28.462199 8.16391051,28.9444006 9.02024562,29.347945 C4.73378218,39.243677 4.73378218,50.4717899 9.02024562,60.366838 C3.51357304,62.9556785 0.047878249,68.5451119 0.178517136,74.6283744 C0.309156128,80.7123206 4.01150591,86.1478599 9.6248784,88.4973097 C15.237567,90.8467596 21.7079583,89.6696406 26.1339524,85.492613 C32.0441694,88.2620228 38.4933579,89.6928958 45.0205193,89.6826362 L45.0205193,86.8810798 C39.1814354,86.8906555 33.4066451,85.6697622 28.070966,83.2991094 C28.6256688,82.5337427 29.1092382,81.718446 29.5148346,80.8648468 C39.4105666,85.1513102 50.6386795,85.1513102 60.5337275,80.8648468 C63.125304,86.3674154 68.7147374,89.8283225 74.7959479,89.6949476 C80.8764743,89.5622568 86.3092777,85.859907 88.6573595,80.2492704 C91.0054415,74.6379499 89.8290067,68.1702943 85.6553988,63.7456682 C88.4248084,57.8347671 89.8556815,51.3848949 89.845422,44.8577335 L87.0438656,44.8577335 Z M74.4368617,2.834374 C79.661053,2.8268634 84.3462732,6.04701175 86.2128375,10.9264805 C88.0787178,15.805949 86.7374454,21.3304048 82.841531,24.8111473 L82.841531,18.9276051 L79.453125,16.4892388 C79.8340983,15.72866 80.0345028,14.8907922 80.0399746,14.0406128 C80.0399746,10.9456317 77.5311587,8.4375 74.4368617,8.4375 C71.3418804,8.4375 68.8337489,10.9456317 68.8337489,14.0406128 C68.8385366,14.8901081 69.0396249,15.7279761 69.4205982,16.4878708 L66.0321925,18.9262373 L66.0321925,24.8097793 C62.136962,21.329037 60.7963735,15.8045811 62.6622538,10.9257965 C64.5281342,6.04701175 69.2133542,2.82754751 74.4368617,2.834374 L74.4368617,2.834374 Z M74.4368617,19.6437257 C75.5818337,19.6430418 76.6987627,19.2887433 77.6344388,18.6293926 L80.0399746,20.3605302 L80.0399746,26.6476167 L80.1801891,26.6476167 C76.5776994,28.5114451 72.2953399,28.5114451 68.6935341,26.6476167 L68.8337489,26.6476167 L68.8337489,20.3605302 L71.2386004,18.6293926 C72.1749605,19.2887433 73.2918896,19.6430418 74.4368617,19.6437257 Z M71.6353053,14.0406128 C71.6353053,12.4934642 72.889713,11.2390564 74.4368617,11.2390564 C75.9840102,11.2390564 77.2384181,12.4934642 77.2384181,14.0406128 C77.2384181,15.5877615 75.9840102,16.8421693 74.4368617,16.8421693 C72.889713,16.8421693 71.6353053,15.5877615 71.6353053,14.0406128 Z M7.19950763,18.9262373 L7.19950763,24.8097793 C3.30359323,21.324933 1.96163667,15.7977413 3.82683309,10.9141689 C5.69202934,6.03128031 10.3772495,2.80566035 15.6041769,2.80566035 C20.8311041,2.80566035 25.5156402,6.03128031 27.3808366,10.9141689 C29.246033,15.7977413 27.9047605,21.324933 24.0088461,24.8097793 L24.0088461,18.9262373 L20.6204402,16.4878708 C21.0007296,15.7279761 21.2018179,14.8901081 21.2072897,14.0406128 C21.2072897,10.9456317 18.6984739,8.4375 15.6041769,8.4375 C12.5091956,8.4375 10.001064,10.9456317 10.001064,14.0406128 C10.0058517,14.8901081 10.2069401,15.7279761 10.5879134,16.4878708 L7.19950763,18.9262373 Z M15.6041769,19.6437257 C16.7491488,19.6430418 17.8660779,19.2887433 18.801754,18.6293926 L21.2072897,20.3605302 L21.2072897,26.6476167 L21.3475043,26.6476167 C17.7450146,28.5114451 13.4626551,28.5114451 9.8608493,26.6476167 L10.001064,26.6476167 L10.001064,20.3605302 L12.4059155,18.6293926 C13.3422757,19.2887433 14.4592048,19.6430418 15.6041769,19.6437257 Z M12.8026205,14.0406128 C12.8026205,12.4934642 14.0570282,11.2390564 15.6041769,11.2390564 C17.1513254,11.2390564 18.4057333,12.4934642 18.4057333,14.0406128 C18.4057333,15.5877615 17.1513254,16.8421693 15.6041769,16.8421693 C14.0570282,16.8421693 12.8026205,15.5877615 12.8026205,14.0406128 Z M15.6041769,86.8810798 C13.6049216,86.8797119 11.6357612,86.3995623 9.8608493,85.4803016 L10.001064,85.4803016 L10.001064,79.1945828 L12.4059155,77.4620774 C14.3237781,78.8142936 16.8845757,78.8142936 18.801754,77.4620774 L21.2072897,79.1945828 L21.2072897,85.4803016 L21.3475043,85.4803016 C19.5719085,86.3995623 17.6027481,86.8797119 15.6041769,86.8810798 L15.6041769,86.8810798 Z M12.8026205,72.8732977 C12.8026205,71.326149 14.0570282,70.0717412 15.6041769,70.0717412 C17.1513254,70.0717412 18.4057333,71.326149 18.4057333,72.8732977 C18.4057333,74.4204463 17.1513254,75.6748541 15.6041769,75.6748541 C14.0570282,75.6748541 12.8026205,74.4204463 12.8026205,72.8732977 Z M24.0088461,83.6438321 L24.0088461,77.76029 L20.6204402,75.3232917 C21.0014135,74.5627129 21.2025019,73.724161 21.2072897,72.8732977 C21.2072897,69.7783166 18.6984739,67.2701848 15.6041769,67.2701848 C12.5091956,67.2701848 10.001064,69.7783166 10.001064,72.8732977 C10.0058517,73.722793 10.2069401,74.5606609 10.5879134,75.3205556 L7.19950763,77.7575541 L7.19950763,83.6410962 C3.30359323,80.15625 1.96163667,74.6290583 3.82683309,69.7454858 C5.69202934,64.8625973 10.3772495,61.6369771 15.6041769,61.6369771 C20.8311041,61.6369771 25.5156402,64.8625973 27.3808366,69.7454858 C29.246033,74.6290583 27.9047605,80.15625 24.0088461,83.6410962 L24.0088461,83.6438321 Z M59.5618007,78.228128 C50.2932728,82.2923 39.7470817,82.2923 30.4785536,78.228128 C31.6358371,73.958764 30.8923578,69.3973432 28.438944,65.7161965 C25.9848462,62.0350498 22.0608889,59.5939475 17.6745653,59.0194096 C15.3996687,54.6447136 14.2095544,49.7878161 14.2033987,44.8577335 L11.4018423,44.8577335 C11.405946,49.713947 12.4620015,54.5120228 14.4975073,58.9216013 C13.5344723,58.9899989 12.5796449,59.1500486 11.6467048,59.3990151 C7.58458471,50.1304869 7.58458471,39.58498 11.6467048,30.3164518 C15.9167528,31.4730515 20.4781736,30.729572 24.1593202,28.2761582 C27.8404669,25.8220604 30.2822531,21.8981031 30.856791,17.5117796 C35.2321711,15.237567 40.0897525,14.0474525 45.0205193,14.0406128 L45.0205193,11.2390564 C40.1636217,11.2431604 35.36623,12.2992158 30.9566513,14.3347216 C30.88757,13.3716866 30.72752,12.4168591 30.4785536,11.4839191 C39.7477656,7.42179905 50.2932728,7.42179905 59.5618007,11.4839191 C58.4045174,15.753967 59.1486808,20.315388 61.6020944,23.9965345 C64.0555083,27.6776811 67.9801496,30.1194674 72.3664732,30.6940054 C74.6400019,35.0693853 75.8308001,39.9269668 75.8376399,44.8577335 L78.6391963,44.8577335 C78.6344085,40.000836 77.578353,35.2034441 75.5435311,30.7938656 C76.5065661,30.7247841 77.4607096,30.5647344 78.3936497,30.3164518 C82.4564537,39.58498 82.4564537,50.1304869 78.3936497,59.3990151 C74.1236017,58.2417315 69.5621809,58.9858949 65.8810341,61.4399927 C62.1998876,63.8934065 59.7581012,67.8180477 59.1835633,72.2050554 C54.8081834,74.4785841 49.9512859,75.6686984 45.0205193,75.6748541 L45.0205193,78.4764105 C49.8767326,78.4723066 54.6748084,77.4162511 59.0843872,75.3807453 C59.1527845,76.3417285 59.3128345,77.2958718 59.5618007,78.228128 Z M74.4368617,86.8810798 C72.4376064,86.8797119 70.468446,86.3995623 68.6935341,85.4803016 L68.8337489,85.4803016 L68.8337489,79.1945828 L71.2386004,77.4620774 C73.1564629,78.8142936 75.7172605,78.8142936 77.6344388,77.4620774 L80.0399746,79.1945828 L80.0399746,85.4803016 L80.1801891,85.4803016 C78.4045933,86.3995623 76.4354329,86.8797119 74.4368617,86.8810798 L74.4368617,86.8810798 Z M71.6353053,72.8732977 C71.6353053,71.326149 72.889713,70.0717412 74.4368617,70.0717412 C75.9840102,70.0717412 77.2384181,71.326149 77.2384181,72.8732977 C77.2384181,74.4204463 75.9840102,75.6748541 74.4368617,75.6748541 C72.889713,75.6748541 71.6353053,74.4204463 71.6353053,72.8732977 Z M87.04387,74.2740759 C87.0411295,77.8533104 85.5124484,81.2615516 82.841531,83.6438321 L82.841531,77.76029 L79.453125,75.3232917 C79.8340983,74.5627129 80.0351867,73.724161 80.0399746,72.8732977 C80.0399746,69.7783166 77.5311587,67.2701848 74.4368617,67.2701848 C71.3418804,67.2701848 68.8337489,69.7783166 68.8337489,72.8732977 C68.8385366,73.722793 69.0396249,74.5606609 69.4205982,75.3205556 L66.0321925,77.7575541 L66.0321925,83.6410962 C61.7231577,79.7759606 60.6028089,73.4717747 63.3154486,68.3583871 C66.0280885,63.2456834 71.876064,60.6383755 77.4928562,62.0384698 C83.1089646,63.438564 87.0486533,68.4856061 87.04387,74.2740759 Z" id="Shape" fill="#1E88E5" fill-rule="nonzero"></path>
                                    <g id="o-fb" transform="translate(2.000000, 2.000000)">
                                        <circle id="Oval" fill="#FFFFFF" cx="13.5" cy="13.5" r="13.5"></circle>
                                        <g id="facebook" transform="translate(5.000000, 5.000000)" fill="#00D1A2" fill-rule="nonzero">
                                            <path d="M13.8125,0 L13.8125,1.0625 L15.9375,1.0625 L15.9375,15.9375 L11.6875,15.9375 L11.6875,12.21875 L13.8125,12.21875 L13.8125,8.5 L11.6875,8.5 L11.6875,7.4375 C11.6875,7.14408398 11.925334,6.90625 12.21875,6.90625 L14.875,6.90625 L14.875,2.65625 L12.21875,2.65625 C9.57936719,2.65917187 7.44042188,4.79811719 7.4375,7.4375 L7.4375,8.5 L5.3125,8.5 L5.3125,12.21875 L7.4375,12.21875 L7.4375,15.9375 L1.0625,15.9375 L1.0625,1.0625 L8.5,1.0625 L8.5,0 L0,0 L0,17 L8.5,17 L8.5,11.15625 L6.375,11.15625 L6.375,9.5625 L8.5,9.5625 L8.5,7.4375 C8.50235742,5.38465039 10.1659004,3.72110742 12.21875,3.71875 L13.8125,3.71875 L13.8125,5.84375 L12.21875,5.84375 C11.3385352,5.84375 10.625,6.55728516 10.625,7.4375 L10.625,9.5625 L12.75,9.5625 L12.75,11.15625 L10.625,11.15625 L10.625,17 L17,17 L17,0 L13.8125,0 Z" id="Path"></path>
                                            <rect id="Rectangle" x="11.6875" y="0" width="1.0625" height="1.0625"></rect>
                                            <rect id="Rectangle" x="9.5625" y="0" width="1.0625" height="1.0625"></rect>
                                        </g>
                                    </g>
                                    <g id="o-snpcht" transform="translate(61.000000, 2.000000)">
                                        <circle id="Oval" fill="#FFFFFF" cx="13.5" cy="13.5" r="13.5"></circle>
                                        <g id="snapchat" transform="translate(5.000000, 4.000000)" fill="#00D1A2" fill-rule="nonzero">
                                            <path d="M11.4333782,1.02033138 C11.1205517,0.77391423 10.778,0.567826511 10.4137758,0.406873294 L9.98483236,1.37928655 C10.2679669,1.50425146 10.5341345,1.66457505 10.7769727,1.85647953 L11.4333782,1.02033138 Z" id="Path"></path>
                                            <path d="M11.8962554,3.30979727 L12.8702593,2.89145809 C12.7132164,2.52617349 12.5112378,2.1818655 12.2689961,1.86655361 L11.428076,2.51235478 C11.6164678,2.75777778 11.7737427,3.02563548 11.8962554,3.30979727 Z" id="Path"></path>
                                            <path d="M15.3765828,11.6654464 C14.2052729,11.6654464 13.2557251,10.7158986 13.2557251,9.54458869 L14.316154,9.54458869 C15.194653,9.54458869 15.9067973,8.83244444 15.9067973,7.95394542 C15.9067973,7.07544639 15.194653,6.36330214 14.316154,6.36330214 L13.2557251,6.36330214 L13.2557251,4.77265887 C13.2557251,4.52610916 13.2369357,4.27989084 13.1995224,4.03619103 L12.1512885,4.19896686 C12.1806491,4.38878363 12.1953626,4.58058869 12.1952963,4.77265887 L12.1952963,7.42373099 L14.316154,7.42373099 C14.6089981,7.42373099 14.8463684,7.66110136 14.8463684,7.95394542 C14.8463684,8.24678947 14.6089981,8.48415984 14.316154,8.48415984 L12.1952963,8.48415984 L12.1952963,9.54458869 C12.1970526,11.3008246 13.620347,12.7241189 15.3765828,12.7258752 C15.6694269,12.7258752 15.9067973,12.9632456 15.9067973,13.2560897 C15.9067973,13.5489337 15.6694269,13.7863041 15.3765828,13.7863041 L14.8463684,13.7863041 C14.2607135,13.7863041 13.7859396,14.261078 13.7859396,14.8467329 C13.7859396,14.9931384 13.667271,15.1118402 13.5208655,15.1118733 C13.5198051,15.1118733 13.5187446,15.1118733 13.5176511,15.1118402 C13.4612495,15.1119727 13.4064055,15.0933158 13.361768,15.0588187 C12.6672534,14.5503099 11.7233392,14.5503099 11.0288246,15.0588187 C9.52066277,16.1899318 7.44692788,16.1899318 5.93876608,15.0588187 C5.24415205,14.5506413 4.30043665,14.5506413 3.60582261,15.0588187 C3.56105263,15.0934152 3.50600975,15.1120721 3.44940936,15.1118402 C3.3030039,15.1132982 3.1831423,14.9957895 3.18165107,14.849384 C3.18165107,14.8484893 3.18165107,14.8475945 3.18165107,14.8467329 C3.18165107,14.261078 2.70687719,13.7863041 2.12122222,13.7863041 L1.5910078,13.7863041 C1.29816374,13.7863041 1.06079337,13.5489337 1.06079337,13.2560897 C1.06079337,12.9632456 1.29816374,12.7258752 1.5910078,12.7258752 C3.34724366,12.7241189 4.77053801,11.3008246 4.77229435,9.54458869 L4.77229435,8.48415984 L2.65143665,8.48415984 C2.35859259,8.48415984 2.12122222,8.24678947 2.12122222,7.95394542 C2.12122222,7.66110136 2.35859259,7.42373099 2.65143665,7.42373099 L4.77229435,7.42373099 L4.77229435,4.77265887 C4.77332164,2.7228499 6.43587524,1.06198635 8.48568421,1.06304678 C8.69077778,1.0631462 8.89550682,1.08024561 9.09778363,1.11417934 L9.2732846,0.0659454191 C6.67205263,-0.368333333 4.21129435,1.38833333 3.77704873,3.98953216 C3.73383626,4.24834308 3.71203119,4.51023587 3.7118655,4.77262573 L3.7118655,6.36326901 L2.65143665,6.36326901 C1.77293762,6.36326901 1.06079337,7.07541326 1.06079337,7.95391228 C1.06079337,8.83241131 1.77293762,9.54455556 2.65143665,9.54455556 L3.7118655,9.54455556 C3.7118655,10.7158655 2.76231774,11.6654133 1.5910078,11.6654133 C0.712508772,11.6654133 0.000364522417,12.3775575 0.000364522417,13.2560565 C0.000364522417,14.1345556 0.712508772,14.8466998 1.5910078,14.8466998 L2.12122222,14.8466998 C2.1232768,15.5791579 2.71748148,16.1719376 3.44993957,16.1722359 C3.73579142,16.1724016 4.01388889,16.0793158 4.24207992,15.9071287 C4.55778947,15.6760214 4.98679922,15.6760214 5.30250877,15.9071287 C7.1877193,17.3210448 9.77987135,17.3210448 11.6650819,15.9071287 C11.9808577,15.6761871 12.4097349,15.6761871 12.7255107,15.9071287 C12.9543645,16.0803099 13.2338207,16.173462 13.5208324,16.1722359 C14.2519318,16.1699162 14.8440487,15.5777992 14.8463684,14.8466998 L15.3765828,14.8466998 C16.2550819,14.8466998 16.9672261,14.1345556 16.9672261,13.2560565 C16.9672261,12.3775906 16.2550819,11.6654464 15.3765828,11.6654464 Z" id="Path"></path>
                                        </g>
                                    </g>
                                    <g id="o-pin" transform="translate(61.000000, 61.000000)">
                                        <circle id="Oval" fill="#FFFFFF" cx="13.5" cy="13.5" r="13.5"></circle>
                                        <g id="pinterest" transform="translate(5.000000, 5.000000)" fill="#00D1A2" fill-rule="nonzero">
                                            <path d="M6.91104678,6.28506238 L5.41902339,15.2462164 C1.6842924,13.5554951 0.0272729045,9.15726706 1.71802729,5.42253606 C3.40878168,1.68780507 7.80697661,0.0308187135 11.5417076,1.72153996 C11.7315906,1.80750097 11.9177622,1.9014152 12.0997251,2.00305068 L12.6150936,1.07623587 C8.52256725,-1.20477973 3.35579337,0.263781676 1.07477778,4.35630799 C-1.20623782,8.44883431 0.262323587,13.615575 4.3548499,15.8965906 C4.77130019,16.128692 5.20653996,16.325269 5.65602924,16.4842671 L6.25252047,16.6963528 L7.95715984,6.45950292 L6.91104678,6.28506238 Z" id="Path"></path>
                                            <path d="M14.4225945,2.42616179 C14.1525828,2.16241326 13.8654386,1.91675828 13.563117,1.69075439 L12.9268596,2.53909747 C13.1911384,2.73696686 13.4422943,2.95180312 13.6787037,3.18224756 L14.4225945,2.42616179 Z" id="Path"></path>
                                            <path d="M14.8987271,4.7384269 L15.8112261,4.1981384 C15.6195536,3.87364717 15.4070039,3.56191423 15.1749688,3.26496101 L14.3409415,3.92083626 C14.5446433,4.18080702 14.7309805,4.45390058 14.8987271,4.7384269 Z" id="Path"></path>
                                            <path d="M16.3181111,5.20925731 L15.3403957,5.62017349 C16.9251735,9.4029883 15.1433548,13.7542924 11.36054,15.3390702 C10.4527797,15.7193665 9.47847758,15.9154464 8.49426706,15.9158772 L8.49426706,16.976306 C13.1812963,16.9745828 16.9794873,13.1736082 16.9777647,8.48657895 C16.9773333,7.36119883 16.7531189,6.24715205 16.3181111,5.20925731 Z" id="Path"></path>
                                            <path d="M13.2661985,7.96266082 C13.2683509,5.32719688 11.1336082,3.1890078 8.49814425,3.18685217 C5.86268031,3.18469981 3.72449123,5.3194425 3.7223356,7.95490643 C3.72164133,8.79539571 3.94297271,9.6211384 4.36389669,10.3486257 L5.28116764,9.81841131 C4.25626316,8.04322027 4.86448538,5.77330604 6.63967641,4.74840156 C8.41486745,3.72349708 10.6847817,4.3317193 11.7096862,6.10691033 C12.7345906,7.88210136 12.1263684,10.1520156 10.3511774,11.1769201 C9.78663158,11.5028694 9.14616569,11.6743606 8.49426706,11.6741618 C8.34411696,11.6751559 8.19403314,11.6657778 8.04517544,11.6460604 L7.89724561,12.6964152 C8.09511501,12.723191 8.29460819,12.7359493 8.49426706,12.7345906 C11.1285049,12.7316745 13.2632807,10.5968986 13.2661985,7.96266082 Z" id="Path"></path>
                                        </g>
                                    </g>
                                    <g id="o-insta" transform="translate(2.000000, 61.000000)">
                                        <circle id="Oval" fill="#FFFFFF" cx="13.5" cy="13.5" r="13.5"></circle>
                                        <g id="instagram" transform="translate(5.000000, 5.000000)" fill="#00D1A2" fill-rule="nonzero">
                                            <path d="M12.21875,0 L11.15625,0 L11.15625,1.0625 L12.21875,1.0625 C14.2715996,1.06485742 15.9351758,2.72840039 15.9375,4.78125 L15.9375,12.21875 C15.9351758,14.2715996 14.2715996,15.9351426 12.21875,15.9375 L4.78125,15.9375 C2.72840039,15.9351426 1.06485742,14.2715996 1.0625,12.21875 L1.0625,4.78125 C1.06485742,2.72840039 2.72840039,1.06485742 4.78125,1.0625 L5.84375,1.0625 L5.84375,0 L4.78125,0 C2.14186719,0.002921875 0.002921875,2.14186719 0,4.78125 L0,12.21875 C0.002921875,14.8581328 2.14186719,16.9970781 4.78125,17 L12.21875,17 C14.8581328,16.9970781 16.9970781,14.8581328 17,12.21875 L17,4.78125 C16.9970781,2.14186719 14.8581328,0.002921875 12.21875,0 Z" id="Path"></path>
                                            <path d="M3.71875,8.5 C3.71875,11.1406113 5.85938867,13.28125 8.5,13.28125 C11.1406113,13.28125 13.28125,11.1406113 13.28125,8.5 C13.28125,5.85938867 11.1406113,3.71875 8.5,3.71875 C5.86061719,3.72167187 3.72167187,5.86061719 3.71875,8.5 Z M8.5,4.78125 C10.5538125,4.78125 12.21875,6.4461875 12.21875,8.5 C12.21875,10.5538125 10.5538125,12.21875 8.5,12.21875 C6.4461875,12.21875 4.78125,10.5538125 4.78125,8.5 C4.78360742,6.44715039 6.44715039,4.78360742 8.5,4.78125 Z" id="Shape"></path>
                                            <rect id="Rectangle" x="12.75" y="3.1875" width="1.0625" height="1.0625"></rect>
                                            <rect id="Rectangle" x="6.90625" y="0" width="1.0625" height="1.0625"></rect>
                                            <rect id="Rectangle" x="9.03125" y="0" width="1.0625" height="1.0625"></rect>
                                        </g>
                                    </g>
                                </g>
                            </g>
                        </g>
                    </g>
                </g>
            </g>
        </g>
    </g>
</svg>