<?xml version="1.0" encoding="UTF-8"?>
<svg width="90px" height="90px" viewBox="0 0 90 90" version="1.1" xmlns="http://www.w3.org/2000/svg" xmlns:xlink="http://www.w3.org/1999/xlink">
    <!-- Generator: Sketch 56 (81588) - https://sketch.com -->
    <title>viral</title>
    <desc>Created with Sketch.</desc>
    <g id="Page-1" stroke="none" stroke-width="1" fill="none" fill-rule="evenodd">
        <g id="Homepage-04" transform="translate(-1117.000000, -2573.000000)" fill-rule="nonzero">
            <g id="S-AUTOMOTIVE" transform="translate(0.000000, 2157.000000)">
                <g id="Automotive" transform="translate(98.000000, 86.000000)">
                    <g id="row" transform="translate(0.000000, 280.000000)">
                        <g id="s---3" transform="translate(873.000000, 0.000000)">
                            <g id="ovalicon" transform="translate(92.000000, 0.000000)">
                                <g id="viral" transform="translate(54.000000, 50.000000)">
                                    <polygon id="Path" fill="#00D1A2" points="8.42105263 78.2291667 5.61403509 78.2291667 5.61403509 72.6151316 11.2280702 72.6151316 11.2280702 75.4221491 8.42105263 75.4221491"></polygon>
                                    <polygon id="Path" fill="#1E88E5" points="70.1754386 29.1063596 72.9824561 29.1063596 72.9824561 31.9133772 70.1754386 31.9133772"></polygon>
                                    <polygon id="Path" fill="#1E88E5" points="28.0701754 19.2817982 50.5263158 19.2817982 50.5263158 22.0888158 28.0701754 22.0888158"></polygon>
                                    <polygon id="Path" fill="#1E88E5" points="28.0701754 26.5803179 50.5263158 26.5803179 50.5263158 29.3873354 28.0701754 29.3873354"></polygon>
                                    <polygon id="Path" fill="#1E88E5" points="28.0701754 33.8781525 50.5263158 33.8781525 50.5263158 36.68517 28.0701754 36.68517"></polygon>
                                    <polygon id="Path" fill="#1E88E5" points="28.0701754 41.1766721 61.754386 41.1766721 61.754386 43.9836896 28.0701754 43.9836896"></polygon>
                                    <polygon id="Path" fill="#1E88E5" points="28.0701754 48.4751919 61.754386 48.4751919 61.754386 51.2822095 28.0701754 51.2822095"></polygon>
                                    <polygon id="Path" fill="#1E88E5" points="28.0701754 55.7730263 47.7192982 55.7730263 47.7192982 58.5800439 28.0701754 58.5800439"></polygon>
                                    <polygon id="Path" fill="#1E88E5" points="70.1754386 12.2642544 72.9824561 12.2642544 72.9824561 17.8782895 70.1754386 17.8782895"></polygon>
                                    <polygon id="Path" fill="#1E88E5" points="60.5393367 15.120614 62.9701207 13.7171053 65.7771382 18.5793586 63.3456688 19.9828674"></polygon>
                                    <polygon id="Path" fill="#1E88E5" points="77.3821272 18.5807291 80.1884595 13.7184758 82.6199288 15.1219846 79.8129112 19.9842379"></polygon>
                                    <path d="M12.6315789,35.8614309 L17.6925712,30.8004386 C18.4957511,29.997944 18.9473684,28.9089912 18.9473684,27.7741228 C18.9473684,26.6385691 18.4957511,25.5496161 17.6925712,24.7471218 C16.3411458,23.4361295 14.3023575,23.1366502 12.6315789,24.0049342 C10.9608004,23.1366502 8.92201211,23.4361295 7.57058667,24.7471218 C6.76740684,25.5496161 6.31578947,26.6385691 6.31578947,27.7741228 C6.31578947,28.9089912 6.76740684,29.997944 7.57058667,30.8004386 L12.6315789,35.8614309 Z M9.55523579,26.7386239 C9.83141439,26.4617598 10.2062774,26.3061951 10.5969025,26.3061951 C10.9882126,26.3061951 11.3630756,26.4617598 11.6392544,26.7386239 L12.6315789,27.7240954 L13.6239035,26.7317709 C14.2070998,26.1746161 15.124726,26.1746161 15.7079221,26.7317709 C15.9847861,27.0079495 16.1403509,27.3828125 16.1403509,27.7741228 C16.1403509,28.1647477 15.9847861,28.5396107 15.7079221,28.8157895 L12.6315789,31.8928179 L9.55523579,28.8157895 C9.27837175,28.5396107 9.12280702,28.1647477 9.12280702,27.7741228 C9.12280702,27.3828125 9.27837175,27.0079495 9.55523579,26.7317709 L9.55523579,26.7386239 Z" id="Shape" fill="#00D1A2"></path>
                                    <path d="M12.6315789,41.7379386 C19.3194902,41.716694 24.8314144,36.4871161 25.2035361,29.8094846 C25.5756579,23.1325384 20.6791393,17.3218202 14.0350877,16.5577028 L14.0350877,4.85951211 L17.5438596,6.86403509 L22.4561404,4.05701754 L27.3684211,6.86403509 L32.2807018,4.05701754 L37.1929825,6.86403509 L42.1052632,4.05701754 L47.0175439,6.86403509 L51.9298246,4.05701754 L56.8421053,6.86403509 L61.754386,4.05701754 L66.6748904,6.86403509 L70.1754386,4.85677088 L70.1754386,9.45723684 L72.9824561,9.45723684 L72.9824561,0.0233003509 L66.6570723,3.63144193 L61.7345121,0.824424386 L56.8222314,3.63144193 L51.9099507,0.824424386 L46.99767,3.63144193 L42.0853893,0.824424386 L37.1731086,3.63144193 L32.2608279,0.824424386 L27.3485472,3.63144193 L22.4362665,0.824424386 L17.5239858,3.63144193 L11.2280702,0.0198738596 L11.2280702,16.5577028 C4.5840186,17.3218202 -0.3125,23.1325384 0.0596217544,29.8094846 C0.431743509,36.4871161 5.94366772,41.716694 12.6315789,41.7379386 Z M12.6315789,19.2817982 C18.05784,19.2817982 22.4561404,23.680784 22.4561404,29.1063596 C22.4561404,34.5326207 18.05784,38.9309211 12.6315789,38.9309211 C7.20531789,38.9309211 2.80701754,34.5326207 2.80701754,29.1063596 C2.81318526,23.68284 7.2080593,19.287966 12.6315789,19.2817982 Z" id="Shape" fill="#1E88E5"></path>
                                    <path d="M77.1929825,57.6891447 C75.5222039,56.8208607 73.4834156,57.12034 72.1319902,58.4313323 C71.3288104,59.2338267 70.877193,60.3227796 70.877193,61.4583333 C70.877193,62.5932018 71.3288104,63.6821546 72.1319902,64.4846491 L77.1929825,69.5456414 L82.2539747,64.4846491 C83.0571546,63.6821546 83.5087719,62.5932018 83.5087719,61.4583333 C83.5087719,60.3227796 83.0571546,59.2338267 82.2539747,58.4313323 C80.9025493,57.12034 78.8637611,56.8208607 77.1929825,57.6891447 L77.1929825,57.6891447 Z M80.2693256,62.5 L77.1929825,65.5770284 L74.1166393,62.5 C73.5409814,61.9243421 73.5409814,60.9916393 74.1166393,60.4159814 C74.6922972,59.8403235 75.625,59.8403235 76.2006579,60.4159814 L77.1929825,61.408306 L78.185307,60.4159814 C78.7685033,59.8588267 79.6861295,59.8588267 80.2693256,60.4159814 C80.5461896,60.69216 80.7017544,61.067023 80.7017544,61.4583333 C80.7017544,61.8489582 80.5461896,62.2238212 80.2693256,62.5 L80.2693256,62.5 Z" id="Shape" fill="#00D1A2"></path>
                                    <path d="M77.1929825,50.1589912 C75.7579495,50.1617325 74.3331963,50.4111842 72.9824561,50.8956963 L72.9824561,38.8582786 C75.8696546,38.7123081 78.7075109,38.0468751 81.3582786,36.8935033 C84.2118968,35.6441886 86.750274,33.7739858 88.7890625,31.4192709 L89.5620888,30.5098684 L88.7890625,29.600466 C86.750274,27.2457511 84.2118968,25.3755482 81.3582786,24.1269189 C78.6485746,22.9584704 75.7462993,22.2998904 72.7974232,22.1861295 C71.9901316,22.0545505 71.1677632,22.0545505 70.3604716,22.1861295 C67.4115954,22.2998904 64.5093202,22.9584704 61.7996161,24.1269189 C58.9459979,25.3755482 56.4076207,27.2457511 54.3688323,29.600466 L53.595806,30.5098684 L54.3688323,31.4192709 C56.4076207,33.7739858 58.9459979,35.6441886 61.7996161,36.8935033 C64.4503839,38.0468751 67.2882402,38.7123081 70.1754386,38.8582786 L70.1754386,52.2950932 C66.6680372,54.6361019 64.5614035,58.5738761 64.5614035,62.7905702 C64.5614035,67.0072642 66.6680372,70.9457237 70.1754386,73.2860472 L70.1754386,81.0361842 C70.1754386,84.1371984 67.6617325,86.6502193 64.5614035,86.6502193 C61.4610746,86.6502193 58.9473684,84.1371984 58.9473684,81.0361842 L58.9473684,67.0010965 L14.0350877,67.0010965 L14.0350877,58.5800439 L11.2280702,58.5800439 L11.2280702,67.0010965 L5.68434189e-14,67.0010965 L5.68434189e-14,81.0361842 C0.00479715789,85.685307 3.77192982,89.4524396 8.42105263,89.4572368 L64.5614035,89.4572368 C69.2105263,89.4524396 72.9776589,85.685307 72.9824561,81.0361842 L72.9824561,74.685444 C77.7268367,76.3808937 83.0249453,75.0952577 86.4638158,71.4131032 C89.9033718,67.7316337 90.8257949,62.3581414 88.8116775,57.7405428 C86.7968751,53.1222588 82.2313596,50.1432291 77.1929825,50.1589912 L77.1929825,50.1589912 Z M8.42105263,86.6502193 C5.32072368,86.6502193 2.80701754,84.1371984 2.80701754,81.0361842 L2.80701754,69.808114 L56.1403509,69.808114 L56.1403509,81.0361842 C56.1410361,83.1106086 56.9113212,85.1110196 58.3018091,86.6502193 L8.42105263,86.6502193 Z M78.7664474,26.1437774 C79.2564419,26.3151042 79.7484923,26.4836896 80.218613,26.6927084 C82.3033168,27.6089639 84.2002467,28.9028235 85.8134595,30.5098684 C84.2002467,32.1169133 82.3033168,33.4114582 80.218613,34.3277139 C79.7484923,34.5367325 79.2564419,34.7053179 78.7664474,34.8766447 C80.4111842,32.1977796 80.4111842,28.8219572 78.7664474,26.1437774 Z M64.3914474,34.8766447 C63.9014528,34.7053179 63.4094025,34.5367325 62.9392818,34.3277139 C60.8545779,33.4114582 58.9576481,32.1169133 57.3444353,30.5098684 C58.9576481,28.9028235 60.8545779,27.6089639 62.9392818,26.6927084 C63.4094025,26.4836896 63.9014528,26.3151042 64.3914474,26.1437774 C62.7467105,28.8219572 62.7467105,32.1977796 64.3914474,34.8766447 Z M65.9649123,30.5098684 C65.9738212,27.6651589 68.1133498,25.27892 70.9402412,24.9602523 C71.3617051,24.9479167 71.7907072,24.9479167 72.2176535,24.9602523 C75.0466009,25.2727523 77.1881853,27.6637884 77.1881853,30.5098684 C77.1881853,33.3566337 75.0466009,35.7469846 72.2176535,36.0594846 C71.7961896,36.0718202 71.3671875,36.0718202 70.9402412,36.0594846 C68.1133498,35.7408168 65.9738212,33.3545779 65.9649123,30.5098684 Z M77.1929825,72.6151316 C71.7667214,72.6151316 67.3684211,68.2168312 67.3684211,62.7905702 C67.3684211,57.3649946 71.7667214,52.9660088 77.1929825,52.9660088 C82.6192435,52.9660088 87.0175439,57.3649946 87.0175439,62.7905702 C87.0113761,68.2140898 82.6165021,72.6089639 77.1929825,72.6151316 Z" id="Shape" fill="#1E88E5"></path>
                                    <polygon id="Path" fill="#00D1A2" points="75.7894737 81.0361842 78.5964912 81.0361842 78.5964912 89.4572368 75.7894737 89.4572368"></polygon>
                                    <polygon id="Path" fill="#00D1A2" points="81.4035088 78.2291667 84.2105263 78.2291667 84.2105263 86.6502193 81.4035088 86.6502193"></polygon>
                                    <polygon id="Path" fill="#00D1A2" points="16.8421053 44.5449561 19.6491228 44.5449561 19.6491228 52.9660088 16.8421053 52.9660088"></polygon>
                                    <polygon id="Path" fill="#00D1A2" points="11.2280702 47.3519737 14.0350877 47.3519737 14.0350877 55.7730263 11.2280702 55.7730263"></polygon>
                                    <polygon id="Path" fill="#00D1A2" points="5.61403509 44.5449561 8.42105263 44.5449561 8.42105263 52.9660088 5.61403509 52.9660088"></polygon>
                                </g>
                            </g>
                        </g>
                    </g>
                </g>
            </g>
        </g>
    </g>
</svg>