<?xml version="1.0" encoding="UTF-8"?>
<svg width="91px" height="90px" viewBox="0 0 91 90" version="1.1" xmlns="http://www.w3.org/2000/svg" xmlns:xlink="http://www.w3.org/1999/xlink">
    <!-- Generator: Sketch 56 (81588) - https://sketch.com -->
    <title>pay-per-click</title>
    <desc>Created with Sketch.</desc>
    <g id="Page-1" stroke="none" stroke-width="1" fill="none" fill-rule="evenodd">
        <g id="Homepage-04" transform="translate(-893.000000, -3384.000000)" fill-rule="nonzero">
            <g id="S-ECOMMERCE" transform="translate(0.000000, 3003.000000)">
                <g id="Ecommerce" transform="translate(254.000000, 90.000000)">
                    <g id="row" transform="translate(62.000000, 242.000000)">
                        <g id="s---2" transform="translate(436.500000, 0.000000)">
                            <g id="ovalicon" transform="translate(92.000000, 0.000000)">
                                <g id="pay-per-click" transform="translate(49.000000, 49.000000)">
                                    <polygon id="Path" fill="#1E88E5" points="28.125 5.625 84.375 5.625 84.375 8.4375 28.125 8.4375"></polygon>
                                    <polygon id="Path" fill="#00D1A2" points="5.625 5.625 8.4375 5.625 8.4375 8.4375 5.625 8.4375"></polygon>
                                    <polygon id="Path" fill="#00D1A2" points="11.25 5.625 14.0625 5.625 14.0625 8.4375 11.25 8.4375"></polygon>
                                    <polygon id="Path" fill="#00D1A2" points="16.875 5.625 19.6875 5.625 19.6875 8.4375 16.875 8.4375"></polygon>
                                    <polygon id="Path" fill="#00D1A2" points="43.59375 50.625 46.40625 50.625 46.40625 56.25 43.59375 56.25"></polygon>
                                    <polygon id="Path" fill="#00D1A2" points="56.8171691 62.1318055 59.6289825 59.3193055 61.6181945 61.3078309 58.8056945 64.1203309"></polygon>
                                    <polygon id="Path" fill="#00D1A2" points="28.3818055 61.3078309 30.3710175 59.3193055 33.1828309 62.1318055 31.1943055 64.1203309"></polygon>
                                    <path d="M0,0 L0,70.3125 L35.15625,70.3125 L35.15625,80.15625 C35.15625,85.5931092 39.5631408,90 45,90 C50.4368592,90 54.84375,85.5931092 54.84375,80.15625 L54.84375,70.3125 L90,70.3125 L90,0 L0,0 Z M52.03125,80.15625 C52.03125,84.0392304 48.8829804,87.1875 45,87.1875 C41.1170196,87.1875 37.96875,84.0392304 37.96875,80.15625 L37.96875,68.90625 C37.96875,65.0232696 41.1170196,61.875 45,61.875 C48.8829804,61.875 52.03125,65.0232696 52.03125,68.90625 L52.03125,80.15625 Z M87.1875,67.5 L54.7311401,67.5 C54.0362549,62.6598359 49.8896026,59.06662 45,59.06662 C40.1103974,59.06662 35.9637451,62.6598359 35.2688599,67.5 L2.8125,67.5 L2.8125,14.0625 L87.1875,14.0625 L87.1875,67.5 Z M87.1875,11.25 L2.8125,11.25 L2.8125,2.8125 L87.1875,2.8125 L87.1875,11.25 Z" id="Shape" fill="#1E88E5"></path>
                                    <polygon id="Path" fill="#1E88E5" points="43.59375 64.6875 46.40625 64.6875 46.40625 70.3125 43.59375 70.3125"></polygon>
                                    <path d="M45,47.8125 C53.5432433,47.8125 60.46875,40.8869933 60.46875,32.34375 C60.46875,23.8005067 53.5432433,16.875 45,16.875 C36.4567567,16.875 29.53125,23.8005067 29.53125,32.34375 C29.5415497,40.8828735 36.4608765,47.8022003 45,47.8125 Z M45,19.6875 C51.9900513,19.6875 57.65625,25.3536987 57.65625,32.34375 C57.65625,39.3338013 51.9900513,45 45,45 C38.0099487,45 32.34375,39.3338013 32.34375,32.34375 C32.3519897,25.3571319 38.0133819,19.6957397 45,19.6875 Z" id="Shape" fill="#1E88E5"></path>
                                    <path d="M71.71875,61.875 C78.7088013,61.875 84.375,56.2088013 84.375,49.21875 C84.375,42.2286987 78.7088013,36.5625 71.71875,36.5625 C64.7286987,36.5625 59.0625,42.2286987 59.0625,49.21875 C59.0700531,56.2053681 64.7321319,61.8674469 71.71875,61.875 Z M71.71875,39.375 C77.1556092,39.375 81.5625,43.7818908 81.5625,49.21875 C81.5625,54.6556092 77.1556092,59.0625 71.71875,59.0625 C66.2818908,59.0625 61.875,54.6556092 61.875,49.21875 C61.8811798,43.7846375 66.2846375,39.3811798 71.71875,39.375 Z" id="Shape" fill="#1E88E5"></path>
                                    <path d="M18.28125,61.875 C25.2713013,61.875 30.9375,56.2088013 30.9375,49.21875 C30.9375,42.2286987 25.2713013,36.5625 18.28125,36.5625 C11.2911987,36.5625 5.625,42.2286987 5.625,49.21875 C5.63255314,56.2053681 11.2946319,61.8674469 18.28125,61.875 Z M18.28125,39.375 C23.7181092,39.375 28.125,43.7818908 28.125,49.21875 C28.125,54.6556092 23.7181092,59.0625 18.28125,59.0625 C12.8443908,59.0625 8.4375,54.6556092 8.4375,49.21875 C8.44367977,43.7846375 12.8471375,39.3811798 18.28125,39.375 Z" id="Shape" fill="#1E88E5"></path>
                                    <g id="google-plus" transform="translate(36.000000, 23.000000)" fill="#00D1A2">
                                        <path d="M5.19299346,2.82849673 L4.29783007,1.41547712 C3.77997386,1.74384314 3.29579085,2.12240523 2.85218301,2.54572549 L4.00752941,3.75796078 C4.37124183,3.40998693 4.76831373,3.09866667 5.19299346,2.82849673 Z" id="Path"></path>
                                        <path d="M3.02870588,4.89657516 L1.65667974,3.93950327 C1.30509804,4.44287582 1.00465359,4.98013072 0.759843137,5.54326797 L2.29584314,6.21254902 C2.49521569,5.7503268 2.74075817,5.30943791 3.02870588,4.89657516 Z" id="Path"></path>
                                        <path d="M10.041098,11.7056732 L12.550902,11.7056732 C11.1660654,13.5548235 8.5444183,13.9312418 6.69526797,12.5464052 C4.84611765,11.1615686 4.46969935,8.53992157 5.85453595,6.69077124 C7.23937255,4.84162092 9.86101961,4.46520261 11.7101699,5.85003922 C11.7166013,5.85484967 11.7229804,5.85966013 11.7293595,5.86452288 L12.3777255,6.35477124 L15.5099608,2.44616993 L14.8406797,1.92496732 C12.2979869,-0.0130718954 8.94065359,-0.515869281 5.94175163,0.592261438 L6.53657516,2.15586928 C8.70630065,1.34896732 11.1252288,1.57312418 13.1097516,2.76491503 L12.0531242,4.08339869 C9.22630065,2.51189542 5.66070588,3.52951634 4.08920261,6.35633987 C2.51769935,9.1831634 3.53532026,12.7487582 6.36214379,14.3202614 C9.18896732,15.8917647 12.7545621,14.8741438 14.3260654,12.0473203 C14.4856993,11.7601569 14.620915,11.4600261 14.7302484,11.1501699 L15.1259608,10.0324706 L11.7143007,10.0324706 L11.7143007,8.35926797 L16.7339085,8.35926797 L16.7339085,9.19586928 C16.7339085,13.3542484 13.3628758,16.725281 9.20449673,16.725281 C5.04611765,16.725281 1.67508497,13.3542484 1.67508497,9.19586928 C1.67424837,8.67320261 1.72836601,8.15194771 1.83654902,7.64062745 L0.199320261,7.29343791 C-0.847843137,12.2668758 2.33505882,17.1475033 7.30849673,18.1946144 C12.2819346,19.2417778 17.1625621,16.0588758 18.2096732,11.0854379 C18.3404967,10.4640523 18.4066405,9.83084967 18.4071111,9.19586928 L18.4071111,6.68606536 L10.041098,6.68606536 L10.041098,11.7056732 Z" id="Path"></path>
                                    </g>
                                    <g id="bing" transform="translate(13.000000, 42.000000)" fill="#00D1A2">
                                        <path d="M11.9923349,6.35692823 C11.9923349,6.09821053 11.8058182,5.84586603 11.5582967,5.76981818 L4.84627751,3.71405742 C4.67388517,3.66129187 4.51044976,3.69938756 4.40885167,3.81582775 C4.30725359,3.93229665 4.2917799,4.09946411 4.36722488,4.26258373 L5.61611483,6.97444019 C5.70022967,7.15682297 5.89409569,7.34925359 6.07696651,7.43199043 L7.45851675,8.05779904 L2.72626794,10.525866 L3.58679426,9.65672727 C3.7422201,9.5131866 3.85415311,9.25998086 3.85415311,9.04998086 L3.85613397,1.46971292 C3.85590431,1.21105263 3.66933014,0.95876555 3.42189474,0.88277512 L0.612660287,0.0226507177 C0.46337799,-0.022937799 0.310334928,0.000976076555 0.192602871,0.0881913876 C0.0748421053,0.175349282 0.00729186603,0.314842105 0.00729186603,0.470870813 L0.00729186603,11.970201 C0.00729186603,12.1960766 0.141559809,12.4540766 0.326526316,12.5836938 L3.18100478,14.584134 C3.28946411,14.6601244 3.42605742,14.6985933 3.5622488,14.6985933 C3.68055502,14.6985933 3.79857416,14.669512 3.89730144,14.6107177 L11.6457703,9.99462201 C11.8467847,9.87479426 11.9926507,9.61802871 11.9926507,9.38411483 L11.9923349,6.35692823 Z M11.3460287,9.49154067 L3.5989378,14.1068612 C3.58070813,14.1155598 3.53336842,14.1138086 3.5170622,14.1045359 L0.662583732,12.104067 C0.633933014,12.084 0.592880383,12.0051388 0.592880383,11.9701722 L0.592880383,0.628995215 L3.24723445,1.44172249 C3.25590431,1.44717703 3.2678756,1.46339713 3.27054545,1.47327273 L3.26856459,9.04986603 C3.26856459,9.09651675 3.22409569,9.19564593 3.18927273,9.22670813 C3.18473684,9.23078469 3.18031579,9.23497608 3.17603828,9.2392823 L1.44149282,10.9911675 C1.30438278,11.1296268 1.28882297,11.3440191 1.40451675,11.500823 C1.52018182,11.6576555 1.72960766,11.7061148 1.90237321,11.6159426 L8.05283254,8.40826794 C8.20840191,8.32627751 8.29845933,8.18615311 8.29380861,8.03336842 C8.28915789,7.88061244 8.190689,7.74625837 8.03084211,7.67414354 L6.31843062,6.89844976 C6.26382775,6.87376077 6.1729378,6.78358852 6.14793301,6.72933014 L5.07335885,4.39601914 L11.3836364,6.32870813 C11.3922201,6.33413397 11.4041053,6.35018182 11.4067751,6.35997129 L11.4071196,9.38379904 C11.406201,9.41333971 11.3706603,9.47580861 11.3460287,9.49154067 Z" id="Shape"></path>
                                        <path d="M1.2861244,6.03143541 C1.12444019,6.03143541 0.993330144,6.16254545 0.993330144,6.32422967 L0.993330144,6.49992344 C0.993330144,6.66160766 1.12444019,6.7927177 1.2861244,6.7927177 C1.44783732,6.7927177 1.57891866,6.66160766 1.57891866,6.49992344 L1.57891866,6.32422967 C1.57888995,6.16254545 1.4477799,6.03143541 1.2861244,6.03143541 Z" id="Path"></path>
                                        <path d="M1.2861244,1.3761244 C1.12444019,1.3761244 0.993330144,1.50723445 0.993330144,1.66891866 L0.993330144,5.32877512 C0.993330144,5.49045933 1.12444019,5.62156938 1.2861244,5.62156938 C1.44783732,5.62156938 1.57891866,5.49045933 1.57891866,5.32877512 L1.57891866,1.66891866 C1.57888995,1.50723445 1.4477799,1.3761244 1.2861244,1.3761244 Z" id="Path"></path>
                                    </g>
                                    <g id="yahoo" transform="translate(66.000000, 44.000000)" fill="#00D1A2">
                                        <path d="M6.81077953,1.58681102 L6.90871654,2.76751181 L8.31484252,3.10873228 C8.16533858,3.57862205 7.5166063,4.51386614 6.38071654,5.89641732 C5.4754252,4.09613386 4.72556693,2.52304724 4.19617323,1.31459055 L5.7973937,1.06655906 L5.89594488,0.000661417323 L0,0.000661417323 L0,1.18551969 L1.70433071,1.55489764 C1.89843307,1.81781102 2.35823622,2.54407087 3.40072441,4.54599213 C4.51797638,6.70237795 4.71328346,7.2507874 4.74677953,7.38125197 L4.77335433,8.49810236 L4.77335433,9.06992126 C4.77335433,10.2599291 4.72696063,10.4806063 4.72159843,10.5032126 C4.71843307,10.5079606 4.64069291,10.6209921 4.12341732,10.6747087 L3.14990551,10.7292283 L2.99940945,11.8968425 L8.52677953,11.8968425 L8.85689764,10.637622 L7.05699213,10.5924094 L6.95707087,9.11350394 L7.03934646,7.38399213 C7.10258268,7.11732283 7.42181102,6.49830709 8.56325197,5.06104724 C9.72770079,3.5573622 10.0473071,3.26789764 10.1167087,3.23617323 L11.5147087,2.76666142 L11.9919449,1.58676378 L6.81077953,1.58676378 L6.81077953,1.58681102 Z" id="Path"></path>
                                    </g>
                                </g>
                            </g>
                        </g>
                    </g>
                </g>
            </g>
        </g>
    </g>
</svg>