<?xml version="1.0" encoding="utf-8"?>
<!-- Generator: Adobe Illustrator 22.1.0, SVG Export Plug-In . SVG Version: 6.00 Build 0)  -->
<svg version="1.1" id="Layer_1" xmlns="http://www.w3.org/2000/svg" xmlns:xlink="http://www.w3.org/1999/xlink" x="0px" y="0px"
	 viewBox="0 0 792 612" style="enable-background:new 0 0 792 612;" xml:space="preserve">
<style type="text/css">
	.st0{fill:#FFFFFF;}
	.st1{font-family:'Orbitron-Regular';}
	.st2{font-size:42.4866px;}
	.st3{fill:#FFFFFF;stroke:#FFFFFF;stroke-width:5;stroke-miterlimit:10;}
</style>
<text transform="matrix(1 0 0 1 190.2876 437.6475)" class="st0 st1 st2">singer marketing</text>
<path class="st0" d="M490.8,277.2c-7.5-7.5-16.5-11.2-27.2-11.2h-22.7v26.2h22.7c3.4,0,6.3,1.2,8.8,3.5c2.4,2.3,3.7,5.2,3.7,8.6
	v51.5c0,3.4-1.2,6.3-3.7,8.8c-2.5,2.5-5.4,3.7-8.8,3.7H310.2c-3.4,0-6.3-1.2-8.8-3.7c-2.5-2.4-3.7-5.4-3.7-8.8v-9h-25.9v9
	c0,10.7,3.7,19.7,11.2,27.2c7.5,7.5,16.5,11.2,27.2,11.2h153.5c10.7,0,19.7-3.7,27.2-11.2c7.5-7.5,11.2-16.5,11.2-27.2v-51.5
	C502,293.7,498.2,284.7,490.8,277.2z"/>
<path class="st0" d="M490.8,175.2c-7.5-7.5-16.5-11.2-27.2-11.2H310.2c-10.7,0-19.7,3.7-27.2,11.2c-7.5,7.5-11.2,16.5-11.2,27.2
	v51.5c0,10.7,3.7,19.7,11.2,27.2c7.5,7.5,16.5,11.2,27.2,11.2h17V266h-17c-3.4,0-6.3-1.2-8.8-3.5c-2.5-2.3-3.7-5.2-3.7-8.6v-51.5
	c0-3.4,1.2-6.3,3.7-8.8c2.4-2.4,5.4-3.7,8.8-3.7h153.5c3.4,0,6.3,1.2,8.8,3.7c2.4,2.5,3.7,5.4,3.7,8.8v9H502v-9
	C502,191.7,498.2,182.7,490.8,175.2z"/>
<path class="st3" d="M385,284.6l41.2-55.4h15.3v112.1h-11.2v-97.8L385,304.3l-45.3-60.9v97.8h-11.2V229.1h15.3L385,284.6z"/>
</svg>
